<svg xmlns="http://www.w3.org/2000/svg" xmlns:xlink="http://www.w3.org/1999/xlink" contentStyleType="text/css" data-diagram-type="SEQUENCE" height="1097px" preserveAspectRatio="none" style="width:1279px;height:1097px;background:#FFFFFF;" version="1.1" viewBox="0 0 1279 1097" width="1279px" zoomAndPan="magnify"><title>Sequence Diagram - Quy tr&#236;nh Load Level &amp; T&#237;nh to&#225;n AI (ThienCoEngine)</title><defs/><g><text fill="#000000" font-family="sans-serif" font-size="14" font-weight="bold" lengthAdjust="spacing" textLength="580.7813" x="350.7903" y="27.9951">Sequence Diagram - Quy tr&#236;nh Load Level &amp; T&#237;nh to&#225;n AI (ThienCoEngine)</text><g><title>GameEngine</title><rect fill="#FFFFFF" height="916.1875" style="stroke:#181818;stroke-width:1;" width="10" x="154.8516" y="149.7266"/></g><g><title>GameEngine</title><rect fill="#FFFFFF" height="28" style="stroke:#181818;stroke-width:1;" width="10" x="159.8516" y="1037.9141"/></g><g><title>Map</title><rect fill="#FFFFFF" height="71.2656" style="stroke:#181818;stroke-width:1;" width="10" x="435.8896" y="178.8594"/></g><g><title>Map</title><rect fill="#FFFFFF" height="29.1328" style="stroke:#181818;stroke-width:1;" width="10" x="435.8896" y="279.2578"/></g><g><title>Player</title><rect fill="#FFFFFF" height="29.1328" style="stroke:#181818;stroke-width:1;" width="10" x="568.9385" y="337.5234"/></g><g><title>ThienCoEngine</title><rect fill="#FFFFFF" height="29.1328" style="stroke:#181818;stroke-width:1;" width="10" x="667.2827" y="395.7891"/></g><g><title>ThienCoEngine</title><rect fill="#FFFFFF" height="174.5313" style="stroke:#181818;stroke-width:1;" width="10" x="667.2827" y="504.3203"/></g><g><title>ThienCoEngine</title><rect fill="#FFFFFF" height="28" style="stroke:#181818;stroke-width:1;" width="10" x="672.2827" y="607.7188"/></g><g><title>ThienCoEngine</title><rect fill="#FFFFFF" height="173.3984" style="stroke:#181818;stroke-width:1;" width="10" x="667.2827" y="707.9844"/></g><g><title>ThienCoEngine</title><rect fill="#FFFFFF" height="28" style="stroke:#181818;stroke-width:1;" width="10" x="672.2827" y="745.1172"/></g><g><title>ThienCoEngine</title><rect fill="#FFFFFF" height="28" style="stroke:#181818;stroke-width:1;" width="10" x="672.2827" y="817.25"/></g><rect fill="none" height="89.2656" style="stroke:#000000;stroke-width:1.5;" width="670.6406" x="602.7212" y="561.4531"/><g><title>User</title><rect fill="#000000" fill-opacity="0.00000" height="972.3203" width="8" x="19.9551" y="118.5938"/><line style="stroke:#181818;stroke-width:0.5;stroke-dasharray:5,5;" x1="23" x2="23" y1="118.5938" y2="1090.9141"/></g><g><title>GameEngine</title><rect fill="#000000" fill-opacity="0.00000" height="972.3203" width="8" x="155.8516" y="118.5938"/><line style="stroke:#181818;stroke-width:0.5;stroke-dasharray:5,5;" x1="159.0215" x2="159.0215" y1="118.5938" y2="1090.9141"/></g><g><title>Map</title><rect fill="#000000" fill-opacity="0.00000" height="972.3203" width="8" x="436.8896" y="118.5938"/><line style="stroke:#181818;stroke-width:0.5;stroke-dasharray:5,5;" x1="440.1172" x2="440.1172" y1="118.5938" y2="1090.9141"/></g><g><title>Player</title><rect fill="#000000" fill-opacity="0.00000" height="972.3203" width="8" x="569.9385" y="118.5938"/><line style="stroke:#181818;stroke-width:0.5;stroke-dasharray:5,5;" x1="573.1558" x2="573.1558" y1="118.5938" y2="1090.9141"/></g><g><title>ThienCoEngine</title><rect fill="#000000" fill-opacity="0.00000" height="972.3203" width="8" x="668.2827" y="118.5938"/><line style="stroke:#181818;stroke-width:0.5;stroke-dasharray:5,5;" x1="671.7212" x2="671.7212" y1="118.5938" y2="1090.9141"/></g><g class="participant participant-head" data-participant="User"><text fill="#000000" font-family="sans-serif" font-size="14" lengthAdjust="spacing" textLength="31.9102" x="5" y="115.292">User</text><ellipse cx="23.9551" cy="50.7969" fill="#E2E2F0" rx="8" ry="8" style="stroke:#181818;stroke-width:0.5;"/><path d="M23.9551,58.7969 L23.9551,85.7969 M10.9551,66.7969 L36.9551,66.7969 M23.9551,85.7969 L10.9551,100.7969 M23.9551,85.7969 L36.9551,100.7969" fill="none" style="stroke:#181818;stroke-width:0.5;"/></g><g class="participant participant-head" data-participant="GE"><rect fill="#E2E2F0" height="30.2969" rx="2.5" ry="2.5" style="stroke:#181818;stroke-width:0.5;" width="103.6602" x="108.0215" y="87.2969"/><text fill="#000000" font-family="sans-serif" font-size="14" lengthAdjust="spacing" textLength="89.6602" x="115.0215" y="107.292">GameEngine</text></g><g class="participant participant-head" data-participant="Map"><rect fill="#E2E2F0" height="30.2969" rx="2.5" ry="2.5" style="stroke:#181818;stroke-width:0.5;" width="43.5449" x="419.1172" y="87.2969"/><text fill="#000000" font-family="sans-serif" font-size="14" lengthAdjust="spacing" textLength="29.5449" x="426.1172" y="107.292">Map</text></g><g class="participant participant-head" data-participant="Player"><rect fill="#E2E2F0" height="30.2969" rx="2.5" ry="2.5" style="stroke:#181818;stroke-width:0.5;" width="57.5654" x="545.1558" y="87.2969"/><text fill="#000000" font-family="sans-serif" font-size="14" lengthAdjust="spacing" textLength="43.5654" x="552.1558" y="107.292">Player</text></g><g class="participant participant-head" data-participant="AI"><rect fill="#E2E2F0" height="30.2969" rx="2.5" ry="2.5" style="stroke:#181818;stroke-width:0.5;" width="119.123" x="612.7212" y="87.2969"/><text fill="#000000" font-family="sans-serif" font-size="14" lengthAdjust="spacing" textLength="105.123" x="619.7212" y="107.292">ThienCoEngine</text></g><g><title>GameEngine</title><rect fill="#FFFFFF" height="916.1875" style="stroke:#181818;stroke-width:1;" width="10" x="154.8516" y="149.7266"/></g><g><title>GameEngine</title><rect fill="#FFFFFF" height="28" style="stroke:#181818;stroke-width:1;" width="10" x="159.8516" y="1037.9141"/></g><g><title>Map</title><rect fill="#FFFFFF" height="71.2656" style="stroke:#181818;stroke-width:1;" width="10" x="435.8896" y="178.8594"/></g><g><title>Map</title><rect fill="#FFFFFF" height="29.1328" style="stroke:#181818;stroke-width:1;" width="10" x="435.8896" y="279.2578"/></g><g><title>Player</title><rect fill="#FFFFFF" height="29.1328" style="stroke:#181818;stroke-width:1;" width="10" x="568.9385" y="337.5234"/></g><g><title>ThienCoEngine</title><rect fill="#FFFFFF" height="29.1328" style="stroke:#181818;stroke-width:1;" width="10" x="667.2827" y="395.7891"/></g><g><title>ThienCoEngine</title><rect fill="#FFFFFF" height="174.5313" style="stroke:#181818;stroke-width:1;" width="10" x="667.2827" y="504.3203"/></g><g><title>ThienCoEngine</title><rect fill="#FFFFFF" height="28" style="stroke:#181818;stroke-width:1;" width="10" x="672.2827" y="607.7188"/></g><g><title>ThienCoEngine</title><rect fill="#FFFFFF" height="173.3984" style="stroke:#181818;stroke-width:1;" width="10" x="667.2827" y="707.9844"/></g><g><title>ThienCoEngine</title><rect fill="#FFFFFF" height="28" style="stroke:#181818;stroke-width:1;" width="10" x="672.2827" y="745.1172"/></g><g><title>ThienCoEngine</title><rect fill="#FFFFFF" height="28" style="stroke:#181818;stroke-width:1;" width="10" x="672.2827" y="817.25"/></g><g class="message" data-participant-1="User" data-participant-2="GE"><polygon fill="#181818" points="142.8516,145.7266,152.8516,149.7266,142.8516,153.7266" style="stroke:#181818;stroke-width:1;"/><line style="stroke:#181818;stroke-width:1;" x1="23.9551" x2="148.8516" y1="149.7266" y2="149.7266"/><text fill="#000000" font-family="sans-serif" font-size="13" lengthAdjust="spacing" textLength="111.8965" x="33.4551" y="144.6606">LoadLevel(index)</text></g><g class="message" data-participant-1="GE" data-participant-2="Map"><polygon fill="#181818" points="423.8896,174.8594,433.8896,178.8594,423.8896,182.8594" style="stroke:#181818;stroke-width:1;"/><line style="stroke:#181818;stroke-width:1;" x1="164.8516" x2="429.8896" y1="178.8594" y2="178.8594"/><text fill="#000000" font-family="sans-serif" font-size="13" lengthAdjust="spacing" textLength="117.9331" x="241.4041" y="173.7935">LoadMap(filePath)</text></g><g class="message" data-participant-1="Map" data-participant-2="Map"><line style="stroke:#181818;stroke-width:1;" x1="445.8896" x2="487.8896" y1="207.9922" y2="207.9922"/><line style="stroke:#181818;stroke-width:1;" x1="487.8896" x2="487.8896" y1="207.9922" y2="220.9922"/><line style="stroke:#181818;stroke-width:1;" x1="446.8896" x2="487.8896" y1="220.9922" y2="220.9922"/><polygon fill="#181818" points="456.8896,216.9922,446.8896,220.9922,456.8896,224.9922" style="stroke:#181818;stroke-width:1;"/><text fill="#000000" font-family="sans-serif" font-size="13" lengthAdjust="spacing" textLength="99.0488" x="452.8896" y="202.9263">Parse File (.txt)</text></g><g class="message" data-participant-1="Map" data-participant-2="GE"><polygon fill="#181818" points="175.8516,246.125,165.8516,250.125,175.8516,254.125" style="stroke:#181818;stroke-width:1;"/><line style="stroke:#181818;stroke-width:1;stroke-dasharray:2,2;" x1="169.8516" x2="439.8896" y1="250.125" y2="250.125"/><text fill="#000000" font-family="sans-serif" font-size="13" lengthAdjust="spacing" textLength="27.5107" x="289.1152" y="245.0591">void</text></g><g class="message" data-participant-1="GE" data-participant-2="Map"><polygon fill="#181818" points="423.8896,275.2578,433.8896,279.2578,423.8896,283.2578" style="stroke:#181818;stroke-width:1;"/><line style="stroke:#181818;stroke-width:1;" x1="164.8516" x2="429.8896" y1="279.2578" y2="279.2578"/><text fill="#000000" font-family="sans-serif" font-size="13" lengthAdjust="spacing" textLength="97.811" x="251.4651" y="274.1919">GetStartPoint()</text></g><g class="message" data-participant-1="Map" data-participant-2="GE"><polygon fill="#181818" points="175.8516,304.3906,165.8516,308.3906,175.8516,312.3906" style="stroke:#181818;stroke-width:1;"/><line style="stroke:#181818;stroke-width:1;stroke-dasharray:2,2;" x1="169.8516" x2="439.8896" y1="308.3906" y2="308.3906"/><text fill="#000000" font-family="sans-serif" font-size="13" lengthAdjust="spacing" textLength="121.2275" x="242.2568" y="303.3247">MapPoint(row, col)</text></g><g class="message" data-participant-1="GE" data-participant-2="Player"><polygon fill="#181818" points="556.9385,333.5234,566.9385,337.5234,556.9385,341.5234" style="stroke:#181818;stroke-width:1;"/><line style="stroke:#181818;stroke-width:1;" x1="164.8516" x2="562.9385" y1="337.5234" y2="337.5234"/><text fill="#000000" font-family="sans-serif" font-size="13" lengthAdjust="spacing" textLength="170.0156" x="281.8872" y="332.4575">SetPosition(pixelX, pixelY)</text></g><g class="message" data-participant-1="Player" data-participant-2="GE"><polygon fill="#181818" points="175.8516,362.6563,165.8516,366.6563,175.8516,370.6563" style="stroke:#181818;stroke-width:1;"/><line style="stroke:#181818;stroke-width:1;stroke-dasharray:2,2;" x1="169.8516" x2="572.9385" y1="366.6563" y2="366.6563"/><text fill="#000000" font-family="sans-serif" font-size="13" lengthAdjust="spacing" textLength="27.5107" x="355.6396" y="361.5903">void</text></g><g class="message" data-participant-1="GE" data-participant-2="AI"><polygon fill="#181818" points="655.2827,391.7891,665.2827,395.7891,655.2827,399.7891" style="stroke:#181818;stroke-width:1;"/><line style="stroke:#181818;stroke-width:1;" x1="164.8516" x2="661.2827" y1="395.7891" y2="395.7891"/><text fill="#000000" font-family="sans-serif" font-size="13" lengthAdjust="spacing" textLength="88.6069" x="371.7637" y="390.7231">GetInstance()</text></g><g class="message" data-participant-1="AI" data-participant-2="GE"><polygon fill="#181818" points="175.8516,420.9219,165.8516,424.9219,175.8516,428.9219" style="stroke:#181818;stroke-width:1;"/><line style="stroke:#181818;stroke-width:1;stroke-dasharray:2,2;" x1="169.8516" x2="671.2827" y1="424.9219" y2="424.9219"/><text fill="#000000" font-family="sans-serif" font-size="13" lengthAdjust="spacing" textLength="68.5674" x="384.2834" y="419.856">s_Instance</text></g><path d="M169,437.9219 L169,477.9219 L441,477.9219 L441,447.9219 L431,437.9219 L169,437.9219" fill="#ADD8E6" style="stroke:#181818;stroke-width:0.5;"/><path d="M431,437.9219 L431,447.9219 L441,447.9219 L431,437.9219" fill="#ADD8E6" style="stroke:#181818;stroke-width:0.5;"/><text fill="#000000" font-family="sans-serif" font-size="13" font-weight="bold" lengthAdjust="spacing" textLength="165.2422" x="175" y="454.9888">AI PROCESSING START</text><text fill="#000000" font-family="sans-serif" font-size="13" lengthAdjust="spacing" textLength="251.3481" x="175" y="470.1216">T&#237;nh to&#225;n ma tr&#7853;n &amp; T&#236;m l&#7897; tr&#236;nh t&#7889;i &#432;u</text><g class="message" data-participant-1="GE" data-participant-2="AI"><polygon fill="#181818" points="655.2827,500.3203,665.2827,504.3203,655.2827,508.3203" style="stroke:#181818;stroke-width:1;"/><line style="stroke:#181818;stroke-width:1;" x1="164.8516" x2="661.2827" y1="504.3203" y2="504.3203"/><text fill="#000000" font-family="sans-serif" font-size="13" lengthAdjust="spacing" textLength="147.4751" x="342.3296" y="499.2544">CalculateMatrix(pMap)</text></g><g class="message" data-participant-1="AI" data-participant-2="AI"><line style="stroke:#181818;stroke-width:1;" x1="677.2827" x2="719.2827" y1="533.4531" y2="533.4531"/><line style="stroke:#181818;stroke-width:1;" x1="719.2827" x2="719.2827" y1="533.4531" y2="546.4531"/><line style="stroke:#181818;stroke-width:1;" x1="678.2827" x2="719.2827" y1="546.4531" y2="546.4531"/><polygon fill="#181818" points="688.2827,542.4531,678.2827,546.4531,688.2827,550.4531" style="stroke:#181818;stroke-width:1;"/><text fill="#000000" font-family="sans-serif" font-size="13" lengthAdjust="spacing" textLength="234.9458" x="684.2827" y="528.3872">Identify Key Points (Start + Shrines)</text></g><path d="M602.7212,561.4531 L679.3452,561.4531 L679.3452,568.5859 L669.3452,578.5859 L602.7212,578.5859 L602.7212,561.4531" fill="#EEEEEE" style="stroke:#000000;stroke-width:1.5;"/><rect fill="none" height="89.2656" style="stroke:#000000;stroke-width:1.5;" width="670.6406" x="602.7212" y="561.4531"/><text fill="#000000" font-family="sans-serif" font-size="13" font-weight="bold" lengthAdjust="spacing" textLength="31.624" x="617.7212" y="574.52">loop</text><text fill="#000000" font-family="sans-serif" font-size="11" font-weight="bold" lengthAdjust="spacing" textLength="235.7642" x="694.3452" y="573.6636">[For i = 0 to N (Duy&#7879;t t&#7915;ng c&#7863;p &#273;i&#7875;m)]</text><g class="message" data-participant-1="AI" data-participant-2="AI"><line style="stroke:#181818;stroke-width:1;" x1="682.2827" x2="724.2827" y1="599.7188" y2="599.7188"/><line style="stroke:#181818;stroke-width:1;" x1="724.2827" x2="724.2827" y1="599.7188" y2="612.7188"/><line style="stroke:#181818;stroke-width:1;" x1="683.2827" x2="724.2827" y1="612.7188" y2="612.7188"/><polygon fill="#181818" points="693.2827,608.7188,683.2827,612.7188,693.2827,616.7188" style="stroke:#181818;stroke-width:1;"/><text fill="#000000" font-family="sans-serif" font-size="13" lengthAdjust="spacing" textLength="252.5923" x="689.2827" y="594.6528">BFS_FindShortestPath(Point A, Point B)</text></g><path d="M963.5923,587.0859 L963.5923,612.0859 L1252.5923,612.0859 L1252.5923,597.0859 L1242.5923,587.0859 L963.5923,587.0859" fill="#FEFFDD" style="stroke:#181818;stroke-width:0.5;"/><path d="M1242.5923,587.0859 L1242.5923,597.0859 L1252.5923,597.0859 L1242.5923,587.0859" fill="#FEFFDD" style="stroke:#181818;stroke-width:0.5;"/><text fill="#000000" font-family="sans-serif" font-size="13" lengthAdjust="spacing" textLength="268.4868" x="969.5923" y="604.1528">T&#236;m &#273;&#432;&#7901;ng ng&#7855;n nh&#7845;t tr&#234;n l&#432;&#7899;i (Grid BFS)</text><g class="message" data-participant-1="AI" data-participant-2="GE"><polygon fill="#181818" points="175.8516,674.8516,165.8516,678.8516,175.8516,682.8516" style="stroke:#181818;stroke-width:1;"/><line style="stroke:#181818;stroke-width:1;stroke-dasharray:2,2;" x1="169.8516" x2="671.2827" y1="678.8516" y2="678.8516"/><text fill="#000000" font-family="sans-serif" font-size="13" lengthAdjust="spacing" textLength="148.3384" x="344.3979" y="673.7856">Matrix (NxN distances)</text></g><g class="message" data-participant-1="GE" data-participant-2="AI"><polygon fill="#181818" points="655.2827,703.9844,665.2827,707.9844,655.2827,711.9844" style="stroke:#181818;stroke-width:1;"/><line style="stroke:#181818;stroke-width:1;" x1="164.8516" x2="661.2827" y1="707.9844" y2="707.9844"/><text fill="#000000" font-family="sans-serif" font-size="13" lengthAdjust="spacing" textLength="166.1943" x="332.97" y="702.9185">CalculateSolution(matrix)</text></g><g class="message" data-participant-1="AI" data-participant-2="AI"><line style="stroke:#181818;stroke-width:1;" x1="682.2827" x2="724.2827" y1="737.1172" y2="737.1172"/><line style="stroke:#181818;stroke-width:1;" x1="724.2827" x2="724.2827" y1="737.1172" y2="750.1172"/><line style="stroke:#181818;stroke-width:1;" x1="683.2827" x2="724.2827" y1="750.1172" y2="750.1172"/><polygon fill="#181818" points="693.2827,746.1172,683.2827,750.1172,693.2827,754.1172" style="stroke:#181818;stroke-width:1;"/><text fill="#000000" font-family="sans-serif" font-size="13" lengthAdjust="spacing" textLength="136.4111" x="689.2827" y="732.0513">SolveTSP_DP(matrix)</text></g><path d="M847.4111,724.4844 L847.4111,749.4844 L1131.4111,749.4844 L1131.4111,734.4844 L1121.4111,724.4844 L847.4111,724.4844" fill="#FEFFDD" style="stroke:#181818;stroke-width:0.5;"/><path d="M1121.4111,724.4844 L1121.4111,734.4844 L1131.4111,734.4844 L1121.4111,724.4844" fill="#FEFFDD" style="stroke:#181818;stroke-width:0.5;"/><text fill="#000000" font-family="sans-serif" font-size="13" lengthAdjust="spacing" textLength="263.5674" x="853.4111" y="741.5513">Quy ho&#7841;ch &#273;&#7897;ng tr&#7841;ng th&#225;i (Bitmask DP)</text><g class="message" data-participant-1="AI" data-participant-2="AI"><line style="stroke:#181818;stroke-width:1;" x1="682.2827" x2="724.2827" y1="809.25" y2="809.25"/><line style="stroke:#181818;stroke-width:1;" x1="724.2827" x2="724.2827" y1="809.25" y2="822.25"/><line style="stroke:#181818;stroke-width:1;" x1="683.2827" x2="724.2827" y1="822.25" y2="822.25"/><polygon fill="#181818" points="693.2827,818.25,683.2827,822.25,693.2827,826.25" style="stroke:#181818;stroke-width:1;"/><text fill="#000000" font-family="sans-serif" font-size="13" lengthAdjust="spacing" textLength="106.5771" x="689.2827" y="804.1841">TracebackPath()</text></g><g class="message" data-participant-1="AI" data-participant-2="GE"><polygon fill="#181818" points="175.8516,877.3828,165.8516,881.3828,175.8516,885.3828" style="stroke:#181818;stroke-width:1;"/><line style="stroke:#181818;stroke-width:1;stroke-dasharray:2,2;" x1="169.8516" x2="671.2827" y1="881.3828" y2="881.3828"/><text fill="#000000" font-family="sans-serif" font-size="13" lengthAdjust="spacing" textLength="254.7061" x="291.2141" y="876.3169">Solution (optimalSteps, pathSequence)</text></g><path d="M169,894.3828 L169,919.3828 L338,919.3828 L338,904.3828 L328,894.3828 L169,894.3828" fill="#ADD8E6" style="stroke:#181818;stroke-width:0.5;"/><path d="M328,894.3828 L328,904.3828 L338,904.3828 L328,894.3828" fill="#ADD8E6" style="stroke:#181818;stroke-width:0.5;"/><text fill="#000000" font-family="sans-serif" font-size="13" font-weight="bold" lengthAdjust="spacing" textLength="148.624" x="175" y="911.4497">AI PROCESSING END</text><g class="message" data-participant-1="GE" data-participant-2="GE"><line style="stroke:#181818;stroke-width:1;" x1="164.8516" x2="206.8516" y1="945.6484" y2="945.6484"/><line style="stroke:#181818;stroke-width:1;" x1="206.8516" x2="206.8516" y1="945.6484" y2="958.6484"/><line style="stroke:#181818;stroke-width:1;" x1="165.8516" x2="206.8516" y1="958.6484" y2="958.6484"/><polygon fill="#181818" points="175.8516,954.6484,165.8516,958.6484,175.8516,962.6484" style="stroke:#181818;stroke-width:1;"/><text fill="#000000" font-family="sans-serif" font-size="13" lengthAdjust="spacing" textLength="247.0381" x="171.8516" y="940.5825">m_optimalSteps = Solution.totalSteps</text></g><g class="message" data-participant-1="GE" data-participant-2="GE"><line style="stroke:#181818;stroke-width:1;" x1="164.8516" x2="206.8516" y1="987.7813" y2="987.7813"/><line style="stroke:#181818;stroke-width:1;" x1="206.8516" x2="206.8516" y1="987.7813" y2="1000.7813"/><line style="stroke:#181818;stroke-width:1;" x1="165.8516" x2="206.8516" y1="1000.7813" y2="1000.7813"/><polygon fill="#181818" points="175.8516,996.7813,165.8516,1000.7813,175.8516,1004.7813" style="stroke:#181818;stroke-width:1;"/><text fill="#000000" font-family="sans-serif" font-size="13" lengthAdjust="spacing" textLength="229.5186" x="171.8516" y="982.7153">SaveState() (Push to History Stack)</text></g><g class="message" data-participant-1="GE" data-participant-2="GE"><line style="stroke:#181818;stroke-width:1;" x1="169.8516" x2="211.8516" y1="1029.9141" y2="1029.9141"/><line style="stroke:#181818;stroke-width:1;" x1="211.8516" x2="211.8516" y1="1029.9141" y2="1042.9141"/><line style="stroke:#181818;stroke-width:1;" x1="170.8516" x2="211.8516" y1="1042.9141" y2="1042.9141"/><polygon fill="#181818" points="180.8516,1038.9141,170.8516,1042.9141,180.8516,1046.9141" style="stroke:#181818;stroke-width:1;"/><text fill="#000000" font-family="sans-serif" font-size="13" lengthAdjust="spacing" textLength="167.1909" x="176.8516" y="1024.8481">SwitchState(STATE_PLAY)</text></g><!--SRC=[dLNFQ-D65BxxhtYaq9NIsBJRNx3GWXqxZedZLLSAR4zcLfvOWwMHLXfvxMFfeOTIQEXfMnRMNTf2ctJtLf2XFIZi_w7_f6z6acqvJg3rmP9ctezlllVUDu89bu99dyQKsnJQZ8n3ua4TleZd8CBqaZlGzya8-dHANNWNhFGAbuIVBZWqUw1P3gFyqE_mCUDKhqKJnWCYGqHYZf4Z4J9Rn9wxkLDaEwLHHCQqwR8n1vjoGSDQZTZ23s7lBABX7f08v4iD_GIpMK2uWBqkyMYUJXbqEzNjKnAeTNnMDmoNp8kW-Mjrkt8GPTNirMhtu8C6dAHNjWEEdoKBeTXGPDGaDAX_ZWZWmNfPOtn4Pxey29iIGIN06k3l7jnlW9KbhnWymNyErnVPyWSGsV8FE6SkLKOO2oCYzY8alcboqo32qPN5Aguye5oGnYiVWuGHXIFq0AqXPa9VcvH8fpuRgTKHhSGgG7w881sM9Vy8SBFaAe1fjlnMji8LS2VzcUDtSYLkWErIOGhaq_0P5zfTK4iS-94RX_wp0x1zLz-5IYvj9CihXzucnLGH4ypdMi1cr7ry0EhvvLRkejPohN2-aud2l23ZemPqi-LtJBPwtXcWcOoFNIfyhc_Wmdt5GOz7Wc1lRpE0lII_qMoLFHgMnjiOPEFb-UlrEhIov4yBhh_Fab_Fu76sl8H- -WAiuxCikRJ0UfX-DG0D0nkF7XvsJBCtwEhIJqNWFeOBsTWHu9_BjE_qvKVBZVEayhU_Nt46qse-ilRtL_kR4-yHx0IiFrTASEbXYooVbpg1dNp1uEsRMBbIFbBfowDytAX4Ebr5ciZ1UiN7OASBszdcz92uTkmYAwS4fMIc1TWKkxbTTKf9T16XDq9fOUTpEA5pK1qNOH5bhy9xO3eX5ZNIRqPmVJ-08zGY1f_1-uWQaEPsFC-MtmWrj19nblmLu1opRFcrjuwn1Q1rP0wFK1LCnmy5ZOISPKq1WUP1ZWXQLUzTPwlMyq7E__N5spVPyWLYuUCiUSrnHhFa5o5ByZi7Lsx-n43hXcmaSLIpL5kkNCN2rMuqQyu-Q8FP04OiRzj8lxrnFy71ORdMfIzPKNFBD6ujh-cxiHfcJsNwRoL6vod5wCEsKV6_BSOcZVAYKzAE4YyL-JboAJjp8PzEka3sManu99f0srY7tStTBd1MI6pwXDWJLVUxWUtWShCA9KcW-O5W7d5DGOC8XGyZbtVuhgAieFqVFUWCseKQh4PwBKudMV8tYj1n-kFXRTeajQZm-BG1VTG7cAZhvMcC3GBJzAMKkDT2if_y5iCOx_UDDb47zuQR1yQ1B9be25yKgzi-9fbI77E1MWoQ4KTIUU0OUzSFvu0RzaJVlbrolsTCs4xkYLfeTOP6lxbzg-2blaMplEOhd_y2]--></g></svg>